<svg width="32" height="32" viewBox="0 0 32 32" fill="none" xmlns="http://www.w3.org/2000/svg">
<g clip-path="url(#clip0_366_3268)">
<path d="M31.8735 9.58221C31.8128 8.28273 31.7446 7.13081 31.4554 6.03547C31.3108 5.48838 31.1108 4.95587 30.8298 4.43153C30.5487 3.90719 30.1866 3.39043 29.7213 2.87309C28.8654 1.92122 27.9126 1.27615 26.8666 0.850378C25.8205 0.424023 24.6847 0.215219 23.4521 0.117233H23.4433L23.4346 0.11665C20.1897 0.112567 16.9093 0 13.6342 0C12.3228 0 11.012 0.0180807 9.70478 0.0682402C8.4599 0.116067 7.26226 0.21172 6.12292 0.513843C4.98358 0.815383 3.90255 1.32806 2.91073 2.20177C2.31541 2.72553 1.8402 3.28603 1.46353 3.87803C0.897943 4.76573 0.553343 5.72343 0.342268 6.73479C0.131193 7.74556 0.051311 8.81115 0.0139939 9.92516C0.00349848 10.236 0 10.5463 0 10.8566C0 11.6994 0.0279878 12.5399 0.0279878 13.3722C0.0279878 13.5985 0.0256555 13.8248 0.0209909 14.0499V14.0831L0.0285709 14.1152C0.108453 14.4185 0.284543 14.6757 0.514276 14.8577C0.74401 15.0397 1.02972 15.1487 1.33059 15.1487C1.52709 15.1487 1.72941 15.1015 1.9195 15.0006C1.99472 14.9609 2.06585 14.9102 2.13524 14.8513C2.23903 14.7632 2.33757 14.6571 2.4192 14.5404C2.46001 14.4821 2.49675 14.4209 2.52707 14.3567C2.55739 14.2925 2.58129 14.2249 2.59412 14.1526C2.63202 13.935 2.6431 13.6935 2.6431 13.4427C2.6431 12.9989 2.60812 12.5241 2.6087 12.1415C2.6087 12.0931 2.6087 12.0464 2.61045 12.0015C2.64077 10.8379 2.61336 9.48831 2.77021 8.21157C2.84834 7.5735 2.97196 6.9535 3.16904 6.386C3.36612 5.81792 3.63492 5.30291 4.00226 4.86722C4.35852 4.44436 4.70779 4.11424 5.0623 3.85353C5.59465 3.46334 6.13983 3.22595 6.76023 3.06906C7.38004 2.91275 8.07507 2.83926 8.8873 2.78443C10.6855 2.66312 12.5065 2.62229 14.3309 2.62229C16.3583 2.62229 18.3903 2.67245 20.402 2.71853C21.1559 2.73602 21.8807 2.72611 22.5739 2.74186C23.6147 2.7646 24.5821 2.84451 25.4736 3.14255C25.9196 3.29186 26.3476 3.49483 26.761 3.77421C27.1744 4.05359 27.5727 4.40937 27.9581 4.86664C28.3353 5.31457 28.603 5.80917 28.7942 6.33934C29.0811 7.13431 29.1936 8.01035 29.2368 8.90681C29.2805 9.80326 29.2549 10.719 29.2753 11.5944C29.3097 13.0875 29.3528 14.6022 29.3528 16.1094C29.3528 17.1003 29.3342 18.0889 29.2823 19.0659C29.2327 19.9973 29.0525 20.8226 28.7126 21.5639C28.3721 22.3058 27.8706 22.9666 27.1639 23.5709C26.6642 23.9978 26.1663 24.2836 25.6584 24.4796C24.8975 24.7735 24.1109 24.8645 23.2725 24.9001C22.4346 24.9357 21.5483 24.9153 20.6031 24.9993C20.2912 25.0272 20.0066 25.0832 19.7454 25.1684C19.353 25.2961 19.0125 25.4909 18.7104 25.7452C18.4078 25.9995 18.1431 26.3116 17.8889 26.6767C17.7577 26.8651 17.6317 27.0785 17.507 27.3025C17.3198 27.6385 17.1361 27.9983 16.9525 28.3261C16.77 28.6539 16.5857 28.9496 16.4119 29.1502C16.349 29.2231 16.2796 29.2739 16.2067 29.3077C16.1338 29.3415 16.0568 29.3579 15.9776 29.3579C15.8639 29.3579 15.7443 29.3229 15.6306 29.2494C15.3624 28.8615 15.1169 28.427 14.8656 27.9867C14.4773 27.3066 14.0767 26.6114 13.5327 26.0538C13.261 25.7756 12.952 25.5318 12.5922 25.348C12.233 25.1643 11.8237 25.0412 11.3578 24.9993C10.517 24.9234 9.63773 24.9497 8.78293 24.9182C7.92755 24.8873 7.09958 24.7986 6.3614 24.5099C5.80339 24.2924 5.23606 23.9342 4.73286 23.4986C4.22966 23.0634 3.79177 22.5514 3.48623 22.0352C3.39411 21.88 3.31539 21.7103 3.23493 21.5394C3.17487 21.4111 3.11365 21.2822 3.04309 21.1574C2.99003 21.0641 2.93173 20.9731 2.8635 20.8885C2.76147 20.7614 2.63435 20.6459 2.47517 20.566C2.31599 20.4849 2.12824 20.4417 1.91717 20.4423C1.80638 20.4423 1.68918 20.454 1.56382 20.4767C1.40755 20.5053 1.2647 20.566 1.14167 20.6488C0.956251 20.7736 0.813396 20.9462 0.716605 21.1399C0.619814 21.3335 0.56792 21.5487 0.567337 21.7663C0.567337 21.8392 0.573167 21.9127 0.585995 21.9856C0.609901 22.125 0.653049 22.2696 0.710774 22.419C0.811064 22.6797 0.955085 22.9567 1.12534 23.2373C1.38015 23.6578 1.69268 24.0865 2.00346 24.4662C2.31483 24.8459 2.62328 25.176 2.87633 25.4017C3.78594 26.2124 4.73286 26.7321 5.74334 27.0605C6.75381 27.3888 7.82551 27.5276 8.99634 27.5895C9.09838 27.5947 9.20217 27.597 9.30595 27.597C9.59866 27.597 9.89778 27.5819 10.187 27.5819C10.5269 27.5819 10.8523 27.6029 11.1339 27.6828C11.275 27.7224 11.4045 27.7767 11.5228 27.8484C11.6412 27.9208 11.7485 28.0112 11.8458 28.1284C12.1415 28.4848 12.3864 28.8971 12.6237 29.3194C12.8021 29.6361 12.9759 29.9586 13.1665 30.2672C13.31 30.4981 13.4627 30.7215 13.6353 30.928C13.8942 31.2371 14.1992 31.5083 14.5787 31.7002C14.9577 31.8927 15.4079 32.0023 15.9426 32.0017C16.0603 32.0017 16.1828 31.9965 16.3093 31.986C16.9338 31.9341 17.4318 31.7305 17.8282 31.4331C18.1262 31.2109 18.3676 30.9391 18.5763 30.6463C18.8895 30.2065 19.1332 29.7183 19.3862 29.2529C19.6387 28.7875 19.9005 28.3465 20.2346 27.996C20.3145 27.9126 20.4084 27.8449 20.5174 27.7895C20.6813 27.7067 20.8795 27.653 21.0993 27.6215C21.3191 27.59 21.5582 27.5801 21.8008 27.5807C22.1046 27.5807 22.4118 27.5953 22.6964 27.5953C22.7879 27.5953 22.8777 27.5935 22.964 27.5895C24.3488 27.5201 25.6071 27.3218 26.7593 26.8627C27.9114 26.4037 28.9528 25.6817 29.8933 24.5869C30.6152 23.7476 31.0811 22.9229 31.3779 22.0416C31.6752 21.1597 31.8053 20.2259 31.8729 19.1598C31.9627 17.7477 32 16.2488 32 14.7422C32 12.9901 31.9499 11.2281 31.8735 9.58454V9.58221Z" fill="#CC0000"/>
<path d="M9.53393 12.7982C9.69486 12.8787 9.8797 12.9312 10.0844 12.951L10.0954 12.9522H21.8626L21.8719 12.9516C22.0754 12.9347 22.2602 12.8839 22.4206 12.8046C22.662 12.6862 22.848 12.5054 22.9704 12.2966C23.0934 12.0872 23.1541 11.851 23.1541 11.6148C23.1541 11.3051 23.048 10.9919 22.8305 10.7446C22.722 10.6215 22.5856 10.5154 22.4247 10.4366C22.2637 10.3579 22.0789 10.306 21.8736 10.2873L21.8626 10.2861L9.96949 10.3042L9.95375 10.3065C9.77008 10.3322 9.6039 10.3888 9.4593 10.4693C9.24239 10.59 9.0768 10.7656 8.96834 10.965C8.85931 11.1645 8.80566 11.3873 8.80566 11.6101C8.80566 11.9216 8.9112 12.2365 9.12811 12.4862C9.23656 12.611 9.37242 12.7183 9.53335 12.7982H9.53393Z" fill="#CC0000"/>
<path d="M9.04471 17.5221C9.20681 17.7489 9.45403 17.9309 9.76948 18.0237L9.80213 18.0336L18.3577 18.0377H18.3641C18.4387 18.033 18.511 18.0184 18.5827 17.9974C18.6894 17.9659 18.7944 17.9198 18.8906 17.8644C18.9874 17.8084 19.0754 17.7449 19.1495 17.6667C19.2702 17.5396 19.3594 17.3955 19.4177 17.2444C19.476 17.0934 19.5034 16.9359 19.5034 16.7808C19.5034 16.4699 19.395 16.1672 19.2014 15.9245C19.0078 15.6825 18.7233 15.5011 18.381 15.448L18.3629 15.4451L9.8756 15.4434L9.84761 15.4504C9.51176 15.5338 9.24471 15.7198 9.06862 15.9566C8.89195 16.1934 8.80273 16.4775 8.80273 16.7609C8.80273 17.0269 8.88145 17.2952 9.04413 17.5215L9.04471 17.5221Z" fill="#CC0000"/>
</g>
<defs>
<clipPath id="clip0_366_3268">
<rect width="32" height="32" fill="white"/>
</clipPath>
</defs>
</svg>
